<?xml version='1.0' encoding='UTF-8' standalone='no'?>
<!-- Created with Fritzing (http://www.fritzing.org/) -->
<svg xmlns:svg='http://www.w3.org/2000/svg' xmlns='http://www.w3.org/2000/svg' version='1.2' baseProfile='tiny' x='0in' y='0in' width='3.10519in' height='5.69048in' viewBox='0 0 223.574 409.715' >
<path stroke='#32bf4f' stroke-width='3' stroke-linecap='round' stroke-linejoin='round' fill='none' d='M24.5726,118.132L25.5726,120.132' />
<path stroke='#ffd500' stroke-width='3' stroke-linecap='round' stroke-linejoin='round' fill='none' d='M33.0565,118.132L33.0565,120.132' />
<g partID='59900'><g transform='translate(0,120.132)' ><g transform='matrix(0,-1,1,0,0,0)'  ><g xmlns="http://www.w3.org/2000/svg" id="breadboard">
 <rect xmlns="http://www.w3.org/2000/svg" height="0.999983" width="1" id="connector0pin" fill="#8C8C8C" x="19.321" y="12.5508"/>
 <rect xmlns="http://www.w3.org/2000/svg" height="0.999983" width="1" id="connector1pin" fill="#8C8C8C" x="19.221" y="43.2563"/>
 <g xmlns="http://www.w3.org/2000/svg">
  <rect xmlns="http://www.w3.org/2000/svg" height="4.56192" width="12.975" fill="#878787" x="107.157" y="25.2206"/>
  <rect xmlns="http://www.w3.org/2000/svg" height="4.56192" width="0.451" fill="#2D2D2D" x="107.157" y="25.2206"/>
  <rect xmlns="http://www.w3.org/2000/svg" height="0.521991" width="12.975" opacity="0.35" x="107.157" y="29.2575"/>
  <path xmlns="http://www.w3.org/2000/svg" fill="#FFFFFF" opacity="0.35" d="M119.835,26.4776c0,0.254996,-0.275,0.460992,-0.617,0.460992L106.78,26.9386c-0.34,0,-0.617,-0.187997,-0.617,-0.442993l0,-0.368994c0,-0.255996,0.277,-0.478992,0.617,-0.478992l12.438,0c0.342,0,0.617,0.206997,0.617,0.460992L119.835,26.4776z"/>
 </g>
 <g xmlns="http://www.w3.org/2000/svg">
  <path xmlns="http://www.w3.org/2000/svg" fill="#6D6D6D" d="M106.687,7.46488c0,-1.56097,-1.275,-2.83395,-2.834,-2.83395l-0.031,0c-1.561,0,-2.836,-0.929985,-2.836,-2.06197c0,-1.13198,-1.273,-2.06097,-2.834,-2.06097L28.507,0.507992l0,54.7001l69.645,0c1.561,0,2.834,-0.929985,2.834,-2.06197s1.275,-2.06097,2.836,-2.06097l0.031,0c1.559,0,2.834,-1.27498,2.834,-2.83595L106.687,7.46488L106.687,7.46488z" stroke="#6D6D6D" stroke-width="1"/>
 </g>
 <path xmlns="http://www.w3.org/2000/svg" opacity="0.35" d="M104.28,47.8142l-0.029,0c-1.551,0,-3.102,0.60599,-3.102,1.34598c0,0.737988,-0.982,1.34598,-2.531,1.34598L34.22,50.5062l0,4.45293l63.833,0c1.547,0,2.812,-0.925985,2.812,-2.05497c0,-1.12898,1.27,-2.05497,2.816,-2.05497l0.031,0c1.549,0,2.814,-1.27098,2.814,-2.82395l0,-2.06097C106.53,46.9822,105.829,47.8142,104.28,47.8142z"/>
 <rect xmlns="http://www.w3.org/2000/svg" height="3.04095" width="0.94" fill="#878787" x="23.905" y="26.3396"/>
 <rect xmlns="http://www.w3.org/2000/svg" height="5.58391" width="10.242" fill="#E5E500" x="27.642" y="25.0686"/>
 <g xmlns="http://www.w3.org/2000/svg">
  <rect xmlns="http://www.w3.org/2000/svg" height="17.9877" width="2.795" fill="#E5E500" x="24.847" y="18.8657"/>
  <polygon xmlns="http://www.w3.org/2000/svg" fill="#F3FF00" points="35.158,25.0686,35.158,0,27.642,0,27.642,25.9996,37.884,25.9996,37.884,29.7185,27.642,29.7185,27.642,55.7201,35.158,55.7201,35.158,30.6525,37.884,30.6525,37.884,25.0686"/>
 </g>
 <path xmlns="http://www.w3.org/2000/svg" fill="#686868" opacity="0.5" d="M101.724,28.0645c0,13.2698,-0.758,24.0206,-0.758,24.0206L100.966,4.04693C100.966,4.04693,101.724,14.8028,101.724,28.0645z"/>
 <path xmlns="http://www.w3.org/2000/svg" fill="#FFFFFF" opacity="0.16" d="M99.819,17.8387c0,1.41698,-1.425,2.56396,-3.181,2.56396L41.119,20.4027c-1.757,0,-3.181,-1.04898,-3.181,-2.46696L37.938,5.14392c0,-1.41798,1.424,-2.66796,3.181,-2.66796l55.519,0c1.756,0,3.181,1.14998,3.181,2.56796L99.819,17.8387z"/>
 <g xmlns="http://www.w3.org/2000/svg" opacity="0.16">
  <path xmlns="http://www.w3.org/2000/svg" fill="#FFFFFF" d="M105.595,18.1777c0,0.779987,-0.639,1.41698,-1.417,1.41698l-0.352,0c-0.777,0,-1.417,-0.637989,-1.417,-1.41698L102.409,7.68487c0,-0.779987,0.64,-1.41698,1.417,-1.41698l0.352,0c0.778,0,1.417,0.637989,1.417,1.41698L105.595,18.1777z"/>
 </g>
 <g xmlns="http://www.w3.org/2000/svg">
  <path xmlns="http://www.w3.org/2000/svg" d="M92.049,24.6596c-1.034,0,-1.876,-0.840986,-1.876,-1.87497l0,-8.42186c0,-1.03498,0.842,-1.87697,1.876,-1.87697s1.876,0.841986,1.876,1.87697l0,8.42186C93.925,23.8176,93.083,24.6596,92.049,24.6596L92.049,24.6596z"/>
  <path xmlns="http://www.w3.org/2000/svg" fill="#6B6B6B" d="M92.049,12.9858c0.759,0,1.376,0.61799,1.376,1.37698l0,8.42186c0,0.759987,-0.617,1.37498,-1.376,1.37498s-1.376,-0.61499,-1.376,-1.37498l0,-8.42186C90.673,13.6028,91.29,12.9858,92.049,12.9858M92.049,11.9858c-1.312,0,-2.376,1.06398,-2.376,2.37696l0,8.42186c0,1.31198,1.062,2.37496,2.376,2.37496c1.312,0,2.376,-1.06198,2.376,-2.37496l0,-8.42186C94.425,13.0498,93.361,11.9858,92.049,11.9858L92.049,11.9858z"/>
 </g>
 <g xmlns="http://www.w3.org/2000/svg">
  <path xmlns="http://www.w3.org/2000/svg" d="M92.049,43.2333c-1.034,0,-1.876,-0.841986,-1.876,-1.87597l0,-8.42086c0,-1.03498,0.842,-1.87697,1.876,-1.87697s1.876,0.841986,1.876,1.87697l0,8.42086C93.925,42.3913,93.083,43.2333,92.049,43.2333L92.049,43.2333z"/>
  <path xmlns="http://www.w3.org/2000/svg" fill="#6B6B6B" d="M92.049,31.5595c0.759,0,1.376,0.61799,1.376,1.37698l0,8.42086c0,0.758987,-0.617,1.37598,-1.376,1.37598s-1.376,-0.61699,-1.376,-1.37598l0,-8.42086C90.673,32.1775,91.29,31.5595,92.049,31.5595M92.049,30.5595c-1.312,0,-2.376,1.06398,-2.376,2.37696l0,8.42086c0,1.31198,1.062,2.37596,2.376,2.37596c1.312,0,2.376,-1.06198,2.376,-2.37596l0,-8.42086C94.425,31.6245,93.361,30.5595,92.049,30.5595L92.049,30.5595z"/>
 </g>
 <g xmlns="http://www.w3.org/2000/svg">
  <path xmlns="http://www.w3.org/2000/svg" d="M92.049,6.0859c-1.034,0,-1.876,-0.842986,-1.876,-1.87497L90.173,0.499992l3.752,0l0,3.71094C93.925,5.24491,93.083,6.0859,92.049,6.0859L92.049,6.0859z"/>
  <path xmlns="http://www.w3.org/2000/svg" fill="#6B6B6B" d="M93.425,0.999983l0,3.21095c0,0.757987,-0.617,1.37498,-1.376,1.37498s-1.376,-0.61699,-1.376,-1.37498L90.673,0.999983L93.425,0.999983M94.425,0l-4.752,0l0,4.21093c0,1.31198,1.062,2.37496,2.376,2.37496c1.312,0,2.376,-1.06298,2.376,-2.37496L94.425,0L94.425,0z"/>
 </g>
 <g xmlns="http://www.w3.org/2000/svg">
  <path xmlns="http://www.w3.org/2000/svg" d="M90.173,55.2201L90.173,51.5091c0,-1.03498,0.842,-1.87697,1.876,-1.87697s1.876,0.841986,1.876,1.87697l0,3.71094L90.173,55.2201z"/>
  <path xmlns="http://www.w3.org/2000/svg" fill="#6B6B6B" d="M92.049,50.1322c0.759,0,1.376,0.61799,1.376,1.37698l0,3.21095l-2.752,0L90.673,51.5091C90.673,50.7502,91.29,50.1322,92.049,50.1322M92.049,49.1322c-1.312,0,-2.376,1.06198,-2.376,2.37696l0,4.21093l4.752,0L94.425,51.5091C94.425,50.1972,93.361,49.1322,92.049,49.1322L92.049,49.1322z"/>
 </g>
 <g xmlns="http://www.w3.org/2000/svg" id="wires">
  <path xmlns="http://www.w3.org/2000/svg" fill="#ED8F66" d="M19.884,10.4378l-0.5,0.547991l0,2.99995l0.559,0.547991l7.699,0l0,-4.09693L19.884,10.4378L19.884,10.4378zM21.443,13.8358c-0.746,0,-1.35,-0.60399,-1.35,-1.34998c0,-0.745988,0.604,-1.34998,1.35,-1.34998s1.35,0.60399,1.35,1.34998C22.793,13.2318,22.189,13.8358,21.443,13.8358z"/>
  <path xmlns="http://www.w3.org/2000/svg" fill="#ED8F66" d="M19.884,41.2073l-0.5,0.548991l0,2.99995l0.559,0.547991l7.699,0l0,-4.09693L19.884,41.2073zM21.443,44.6063c-0.746,0,-1.35,-0.60399,-1.35,-1.34998s0.604,-1.34998,1.35,-1.34998s1.35,0.60399,1.35,1.34998S22.189,44.6063,21.443,44.6063z"/>
  <g xmlns="http://www.w3.org/2000/svg" id="connector0leg" fill="none" y1="25.573" y2="24.573" stroke="#32BF4F" stroke-width="3" x1="0" stroke-linecap="round" x2="2"/>
  <g xmlns="http://www.w3.org/2000/svg" id="connector1leg" fill="none" y1="33.057" y2="33.057" stroke="#FFD500" stroke-width="3" x1="0" stroke-linecap="round" x2="2"/>
  <path xmlns="http://www.w3.org/2000/svg" fill="none" d="M2,24.5726C7.5,21.2266,9.094,12.5508,19.321,12.5508" stroke="#32BF4F" stroke-width="3"/>
  <path xmlns="http://www.w3.org/2000/svg" fill="none" d="M2,33.0565C9.512,33.3964,13.557,43.2563,19.221,43.2563" stroke="#FFD500" stroke-width="3"/>
 </g>
</g>
</g></g></g><path stroke='#32bf4f' stroke-width='3' stroke-linecap='round' stroke-linejoin='round' fill='none' d='M132.573,118.132L133.573,120.132' />
<path stroke='#ffd500' stroke-width='3' stroke-linecap='round' stroke-linejoin='round' fill='none' d='M141.056,118.132L141.056,120.132' />
<g partID='9832900'><g transform='translate(108,120.132)' ><g transform='matrix(0,-1,1,0,0,0)'  ><g xmlns="http://www.w3.org/2000/svg" id="breadboard">
 <rect xmlns="http://www.w3.org/2000/svg" height="0.999983" width="1" id="connector0pin" fill="#8C8C8C" x="19.321" y="12.5508"/>
 <rect xmlns="http://www.w3.org/2000/svg" height="0.999983" width="1" id="connector1pin" fill="#8C8C8C" x="19.221" y="43.2563"/>
 <g xmlns="http://www.w3.org/2000/svg">
  <rect xmlns="http://www.w3.org/2000/svg" height="4.56192" width="12.975" fill="#878787" x="107.157" y="25.2206"/>
  <rect xmlns="http://www.w3.org/2000/svg" height="4.56192" width="0.451" fill="#2D2D2D" x="107.157" y="25.2206"/>
  <rect xmlns="http://www.w3.org/2000/svg" height="0.521991" width="12.975" opacity="0.35" x="107.157" y="29.2575"/>
  <path xmlns="http://www.w3.org/2000/svg" fill="#FFFFFF" opacity="0.35" d="M119.835,26.4776c0,0.254996,-0.275,0.460992,-0.617,0.460992L106.78,26.9386c-0.34,0,-0.617,-0.187997,-0.617,-0.442993l0,-0.368994c0,-0.255996,0.277,-0.478992,0.617,-0.478992l12.438,0c0.342,0,0.617,0.206997,0.617,0.460992L119.835,26.4776z"/>
 </g>
 <g xmlns="http://www.w3.org/2000/svg">
  <path xmlns="http://www.w3.org/2000/svg" fill="#6D6D6D" d="M106.687,7.46488c0,-1.56097,-1.275,-2.83395,-2.834,-2.83395l-0.031,0c-1.561,0,-2.836,-0.929985,-2.836,-2.06197c0,-1.13198,-1.273,-2.06097,-2.834,-2.06097L28.507,0.507992l0,54.7001l69.645,0c1.561,0,2.834,-0.929985,2.834,-2.06197s1.275,-2.06097,2.836,-2.06097l0.031,0c1.559,0,2.834,-1.27498,2.834,-2.83595L106.687,7.46488L106.687,7.46488z" stroke="#6D6D6D" stroke-width="1"/>
 </g>
 <path xmlns="http://www.w3.org/2000/svg" opacity="0.35" d="M104.28,47.8142l-0.029,0c-1.551,0,-3.102,0.60599,-3.102,1.34598c0,0.737988,-0.982,1.34598,-2.531,1.34598L34.22,50.5062l0,4.45293l63.833,0c1.547,0,2.812,-0.925985,2.812,-2.05497c0,-1.12898,1.27,-2.05497,2.816,-2.05497l0.031,0c1.549,0,2.814,-1.27098,2.814,-2.82395l0,-2.06097C106.53,46.9822,105.829,47.8142,104.28,47.8142z"/>
 <rect xmlns="http://www.w3.org/2000/svg" height="3.04095" width="0.94" fill="#878787" x="23.905" y="26.3396"/>
 <rect xmlns="http://www.w3.org/2000/svg" height="5.58391" width="10.242" fill="#E5E500" x="27.642" y="25.0686"/>
 <g xmlns="http://www.w3.org/2000/svg">
  <rect xmlns="http://www.w3.org/2000/svg" height="17.9877" width="2.795" fill="#E5E500" x="24.847" y="18.8657"/>
  <polygon xmlns="http://www.w3.org/2000/svg" fill="#F3FF00" points="35.158,25.0686,35.158,0,27.642,0,27.642,25.9996,37.884,25.9996,37.884,29.7185,27.642,29.7185,27.642,55.7201,35.158,55.7201,35.158,30.6525,37.884,30.6525,37.884,25.0686"/>
 </g>
 <path xmlns="http://www.w3.org/2000/svg" fill="#686868" opacity="0.5" d="M101.724,28.0645c0,13.2698,-0.758,24.0206,-0.758,24.0206L100.966,4.04693C100.966,4.04693,101.724,14.8028,101.724,28.0645z"/>
 <path xmlns="http://www.w3.org/2000/svg" fill="#FFFFFF" opacity="0.16" d="M99.819,17.8387c0,1.41698,-1.425,2.56396,-3.181,2.56396L41.119,20.4027c-1.757,0,-3.181,-1.04898,-3.181,-2.46696L37.938,5.14392c0,-1.41798,1.424,-2.66796,3.181,-2.66796l55.519,0c1.756,0,3.181,1.14998,3.181,2.56796L99.819,17.8387z"/>
 <g xmlns="http://www.w3.org/2000/svg" opacity="0.16">
  <path xmlns="http://www.w3.org/2000/svg" fill="#FFFFFF" d="M105.595,18.1777c0,0.779987,-0.639,1.41698,-1.417,1.41698l-0.352,0c-0.777,0,-1.417,-0.637989,-1.417,-1.41698L102.409,7.68487c0,-0.779987,0.64,-1.41698,1.417,-1.41698l0.352,0c0.778,0,1.417,0.637989,1.417,1.41698L105.595,18.1777z"/>
 </g>
 <g xmlns="http://www.w3.org/2000/svg">
  <path xmlns="http://www.w3.org/2000/svg" d="M92.049,24.6596c-1.034,0,-1.876,-0.840986,-1.876,-1.87497l0,-8.42186c0,-1.03498,0.842,-1.87697,1.876,-1.87697s1.876,0.841986,1.876,1.87697l0,8.42186C93.925,23.8176,93.083,24.6596,92.049,24.6596L92.049,24.6596z"/>
  <path xmlns="http://www.w3.org/2000/svg" fill="#6B6B6B" d="M92.049,12.9858c0.759,0,1.376,0.61799,1.376,1.37698l0,8.42186c0,0.759987,-0.617,1.37498,-1.376,1.37498s-1.376,-0.61499,-1.376,-1.37498l0,-8.42186C90.673,13.6028,91.29,12.9858,92.049,12.9858M92.049,11.9858c-1.312,0,-2.376,1.06398,-2.376,2.37696l0,8.42186c0,1.31198,1.062,2.37496,2.376,2.37496c1.312,0,2.376,-1.06198,2.376,-2.37496l0,-8.42186C94.425,13.0498,93.361,11.9858,92.049,11.9858L92.049,11.9858z"/>
 </g>
 <g xmlns="http://www.w3.org/2000/svg">
  <path xmlns="http://www.w3.org/2000/svg" d="M92.049,43.2333c-1.034,0,-1.876,-0.841986,-1.876,-1.87597l0,-8.42086c0,-1.03498,0.842,-1.87697,1.876,-1.87697s1.876,0.841986,1.876,1.87697l0,8.42086C93.925,42.3913,93.083,43.2333,92.049,43.2333L92.049,43.2333z"/>
  <path xmlns="http://www.w3.org/2000/svg" fill="#6B6B6B" d="M92.049,31.5595c0.759,0,1.376,0.61799,1.376,1.37698l0,8.42086c0,0.758987,-0.617,1.37598,-1.376,1.37598s-1.376,-0.61699,-1.376,-1.37598l0,-8.42086C90.673,32.1775,91.29,31.5595,92.049,31.5595M92.049,30.5595c-1.312,0,-2.376,1.06398,-2.376,2.37696l0,8.42086c0,1.31198,1.062,2.37596,2.376,2.37596c1.312,0,2.376,-1.06198,2.376,-2.37596l0,-8.42086C94.425,31.6245,93.361,30.5595,92.049,30.5595L92.049,30.5595z"/>
 </g>
 <g xmlns="http://www.w3.org/2000/svg">
  <path xmlns="http://www.w3.org/2000/svg" d="M92.049,6.0859c-1.034,0,-1.876,-0.842986,-1.876,-1.87497L90.173,0.499992l3.752,0l0,3.71094C93.925,5.24491,93.083,6.0859,92.049,6.0859L92.049,6.0859z"/>
  <path xmlns="http://www.w3.org/2000/svg" fill="#6B6B6B" d="M93.425,0.999983l0,3.21095c0,0.757987,-0.617,1.37498,-1.376,1.37498s-1.376,-0.61699,-1.376,-1.37498L90.673,0.999983L93.425,0.999983M94.425,0l-4.752,0l0,4.21093c0,1.31198,1.062,2.37496,2.376,2.37496c1.312,0,2.376,-1.06298,2.376,-2.37496L94.425,0L94.425,0z"/>
 </g>
 <g xmlns="http://www.w3.org/2000/svg">
  <path xmlns="http://www.w3.org/2000/svg" d="M90.173,55.2201L90.173,51.5091c0,-1.03498,0.842,-1.87697,1.876,-1.87697s1.876,0.841986,1.876,1.87697l0,3.71094L90.173,55.2201z"/>
  <path xmlns="http://www.w3.org/2000/svg" fill="#6B6B6B" d="M92.049,50.1322c0.759,0,1.376,0.61799,1.376,1.37698l0,3.21095l-2.752,0L90.673,51.5091C90.673,50.7502,91.29,50.1322,92.049,50.1322M92.049,49.1322c-1.312,0,-2.376,1.06198,-2.376,2.37696l0,4.21093l4.752,0L94.425,51.5091C94.425,50.1972,93.361,49.1322,92.049,49.1322L92.049,49.1322z"/>
 </g>
 <g xmlns="http://www.w3.org/2000/svg" id="wires">
  <path xmlns="http://www.w3.org/2000/svg" fill="#ED8F66" d="M19.884,10.4378l-0.5,0.547991l0,2.99995l0.559,0.547991l7.699,0l0,-4.09693L19.884,10.4378L19.884,10.4378zM21.443,13.8358c-0.746,0,-1.35,-0.60399,-1.35,-1.34998c0,-0.745988,0.604,-1.34998,1.35,-1.34998s1.35,0.60399,1.35,1.34998C22.793,13.2318,22.189,13.8358,21.443,13.8358z"/>
  <path xmlns="http://www.w3.org/2000/svg" fill="#ED8F66" d="M19.884,41.2073l-0.5,0.548991l0,2.99995l0.559,0.547991l7.699,0l0,-4.09693L19.884,41.2073zM21.443,44.6063c-0.746,0,-1.35,-0.60399,-1.35,-1.34998s0.604,-1.34998,1.35,-1.34998s1.35,0.60399,1.35,1.34998S22.189,44.6063,21.443,44.6063z"/>
  <g xmlns="http://www.w3.org/2000/svg" id="connector0leg" fill="none" y1="25.573" y2="24.573" stroke="#32BF4F" stroke-width="3" x1="0" stroke-linecap="round" x2="2"/>
  <g xmlns="http://www.w3.org/2000/svg" id="connector1leg" fill="none" y1="33.057" y2="33.057" stroke="#FFD500" stroke-width="3" x1="0" stroke-linecap="round" x2="2"/>
  <path xmlns="http://www.w3.org/2000/svg" fill="none" d="M2,24.5726C7.5,21.2266,9.094,12.5508,19.321,12.5508" stroke="#32BF4F" stroke-width="3"/>
  <path xmlns="http://www.w3.org/2000/svg" fill="none" d="M2,33.0565C9.512,33.3964,13.557,43.2563,19.221,43.2563" stroke="#FFD500" stroke-width="3"/>
 </g>
</g>
</g></g></g><g partID='9840270'><g transform='translate(19.5771,311.965)' ><g  id="breadboard">
 <path  id="path4_1_" fill="#D2D2D2" d="M7.781,13.123c0,-0.532,0.484,-0.904,0.906,-0.904L89.27,12.219c0.602,0,0.905,0.308,0.905,0.904l0,40.998c0,0.479,-0.377,0.905,-0.905,0.905L8.685,55.026c-0.492,0,-0.905,-0.354,-0.905,-0.905L7.781,13.123L7.781,13.123z"/>
 <path  id="path4_2_" fill="#FFC900" d="M23.64,55.026L8.688,55.026c-0.493,0,-0.908,-0.355,-0.908,-0.904l0.001,-40.998l0,0c0,-0.532,0.484,-0.904,0.908,-0.904l14.949,0l0,42.809L23.64,55.026L23.64,55.026z"/>
 <path  enable-background="new    " id="path4_3_" opacity="0.36" fill="#1D1D1D" d="M19.094,55.026L8.688,55.026c-0.493,0,-0.908,-0.355,-0.908,-0.904l0.001,-40.998l0,0c0,-0.532,0.484,-0.904,0.908,-0.904l10.402,0l0,42.809L19.094,55.026L19.094,55.026z"/>
 <g  id="path112_1_">
  <path  d="M7.764,30.611c-1.665,0,-6.082,0,-6.082,-6.767c0,-4.301,1.83,-7.431,3.602,-10.454c1.561,-2.663,3.028,-5.18,3.028,-8.255l0,-5.137l1.175,0l0,5.137c0,3.395,-1.55,6.044,-3.188,8.85c-1.693,2.892,-3.441,5.879,-3.441,9.859c-0.001,5.588,3.192,5.588,4.908,5.588L7.764,30.611L7.764,30.611z"/>
 </g>
 <g  id="path114_1_">
  <path  fill="#FF0000" d="M7.752,36.115c-2.157,0,-7.753,-2.207,-7.751,-12.265c0,-4.372,1.448,-7.264,2.854,-10.058c1.313,-2.613,2.554,-5.083,2.554,-8.657L5.409,0.004l1.176,0l0,5.132c0,3.854,-1.361,6.563,-2.68,9.185c-1.341,2.672,-2.729,5.435,-2.729,9.53c-0.001,9.051,4.873,11.086,6.58,11.086l0,1.179L7.752,36.116z"/>
 </g>
 <path  enable-background="new    " id="path22_1_" opacity="0.35" d="M10.061,54.605c-0.803,0,-1.824,-0.741,-1.824,-1.624l0,-4.063c0,0.887,1.023,2.262,1.824,2.262l77.825,0c0.803,0,1.818,-1.375,1.818,-2.262l0,4.063c0,0.883,-1.019,1.624,-1.818,1.624L10.061,54.605L10.061,54.605z"/>
 <path  enable-background="new    " id="path22_2_" opacity="0.35" fill="#FFFFFF" d="M87.788,12.691c0.804,0,1.822,0.742,1.822,1.626l0,4.06c0,-0.879,-1.021,-2.257,-1.822,-2.257L9.966,16.12c-0.804,0,-1.82,1.378,-1.82,2.257l0,-4.06c0,-0.885,1.02,-1.626,1.82,-1.626L87.788,12.691L87.788,12.691z"/>
 <g >
  <g transform="matrix(1, 0, 0, 1, 28.2537, 30.6853)">
   <text  font-size="8.752" font-family="'DroidSans'">6SP 061225</text>
  </g>
  <g transform="matrix(1, 0, 0, 1, 28.2537, 40.1101)">
   <text  font-size="8.752" font-family="'DroidSans'">110mAh 3.7V</text>
  </g>
 </g>
 <rect  height="5.137" width="1.175" id="connector1pin" fill="none" x="8.312" y="-0.001"/>
 <rect  height="5.137" width="1.175" id="connector0pin" fill="none" x="5.408" y="-0.001"/>
</g>
</g></g><g partID='9840840'><line stroke-linecap='round' stroke='#000000' x1='177.039' y1='314.799' x2='28.4766' y2='314.532' stroke-width='3.2' /><line stroke-linecap='round' stroke='#404040' x1='177.039' y1='314.799' x2='28.4766' y2='314.532' stroke-width='1.6' /></g><g partID='9840850'><line stroke-linecap='round' stroke='#000000' x1='176.774' y1='314.531' x2='177.039' y2='314.799' stroke-width='3.2' /><line stroke-linecap='round' stroke='#404040' x1='176.774' y1='314.531' x2='177.039' y2='314.799' stroke-width='1.6' /></g></svg>